<?xml version="1.0" encoding="utf-8"?>
<!-- Generator: Adobe Illustrator 24.3.0, SVG Export Plug-In . SVG Version: 6.00 Build 0)  -->
<svg version="1.1" id="Layer_1" xmlns="http://www.w3.org/2000/svg" xmlns:xlink="http://www.w3.org/1999/xlink" x="0px" y="0px"
	 viewBox="0 0 841.89 595.28" style="enable-background:new 0 0 841.89 595.28;" xml:space="preserve">
<style type="text/css">
	.st0{display:none;fill:#FFFFFF;}
	.st1{fill:#070909;}
	.st2{font-family:'Roboto-Bold';}
	.st3{font-size:44.3841px;}
	.st4{letter-spacing:4;}
	.st5{fill:#C62128;}
	.st6{font-family:'SegoeUI-Semibold';}
	.st7{font-size:33.2881px;}
	.st8{letter-spacing:3;}
	.st9{fill:url(#SVGID_1_);}
	.st10{fill:url(#SVGID_2_);}
	.st11{fill:url(#SVGID_3_);}
</style>
<rect class="st0" width="841.89" height="595.28"/>
<text transform="matrix(1 0 0 1 170.1958 381.7812)" class="st1 st2 st3 st4">AALISHAAN GLOBAL</text>
<text transform="matrix(1 0 0 1 288.8698 416.3135)" class="st5 st6 st7 st8">BPO SERVICES</text>
<g>
	<path class="st1" d="M402.35,246.26l13.18-8.67l-8.61-4.28v5.08h-31.04c0,0,0-19.74,4.56-29.89c0,0,11.87,4.11,26.93,3.42v9.64
		c0,0,2.69-2,7.65-0.8c0,0,0-65.56,0-65.58c-0.01-0.46-10.74,0.86-11.65,0.97c-6.86,0.87-13.56,2.92-19.9,5.71
		c-14.67,6.47-26.63,17.71-35.43,31.07c-0.27,0.4-0.53,0.79-0.77,1.19c-4.07,6.36-6.88,13.57-8.73,20.87
		c-3.35,13.24-3.29,27.16-0.39,40.49c1.01,4.65,2.35,9.23,3.98,13.71l8.67-0.46c0,0-6.38-15.4-5.25-22.7l21.79,0.46
		c0,0,0.57,14.94,1.94,16.88l7.64-2.96c0,0-1.87-11.53-1.14-14.15H402.35z M407.25,164.35v40.15l-24.3-3.19
		C382.95,201.31,391.97,171.54,407.25,164.35z M367.78,238.39l-23.5-0.46c0,0,0-26.24,10.84-40.04c0,0,9.81,6.38,17.91,7.88
		C373.03,205.77,367.32,224.82,367.78,238.39z M374.97,198.69l-15.64-6.85c0,0,11.87-16.53,30.8-23.48
		C389.83,168.76,380.25,181.73,374.97,198.69z"/>
	<path class="st1" d="M332.41,251.4c0,0-15.4,24.98,15.74,22.25c3.52-0.31,6.89-0.9,10.31-1.85c11.98-3.31,23.39-8.78,34.32-14.59
		c6.57-3.49,12.78-7.6,18.97-11.71c2.62-1.74,5.24-3.5,7.79-5.34c1.43-1.04,3.31-2.12,4.36-3.59l-18.37-8.9l5.25-2.97l25.55,3.31
		l14.94-10.61c0,0,6.46-2.97,8.59-1.22c0,0,2.02,3-3.57,8.29l-14.68,11.26l-3.99,25.17l-4.72,3.73c0,0-2.89-20.79-2.89-20.79
		c-13.32,11.08-28.32,20.53-44.01,27.85c-5.73,2.67-11.58,5.06-17.53,7.2c-9.56,3.44-19.91,6.26-30.13,6.24
		c-5.54-0.01-12.73-0.84-15.87-6.17c-1.58-2.69-1.91-5.88-1.38-8.92C322.37,262.81,327.5,256.53,332.41,251.4z"/>
	<path class="st1" d="M406.57,315.97v7.87c0,0-31.37-1.25-55.1-35.48c0,0,5.1,0.08,8.21-2.51c0,0,13.01,17.57,26.92,22.97
		c0,0-9.25-16.66-9.71-18.94l7.88-2.57C384.77,287.31,395.5,314.37,406.57,315.97z"/>
	<linearGradient id="SVGID_1_" gradientUnits="userSpaceOnUse" x1="418.9213" y1="243.7438" x2="513.8438" y2="243.7438">
		<stop  offset="0" style="stop-color:#CEB165"/>
		<stop  offset="0.1838" style="stop-color:#EED770"/>
		<stop  offset="0.452" style="stop-color:#D8B75D"/>
		<stop  offset="0.729" style="stop-color:#EACE68"/>
		<stop  offset="1" style="stop-color:#A98335"/>
	</linearGradient>
	<path class="st9" d="M420.52,160.21c0,0,0-5.05,0-5.05c0.01-0.38,10.32,1.05,11.1,1.16c16.01,2.36,31.04,9.48,43.05,20.31
		c4.41,3.98,8.4,8.42,11.89,13.23c1.86,2.56,3.58,5.22,5.14,7.97c4.7,8.26,8.37,17.16,10.58,26.41c0,0,10.8-0.76,11.56,10.8v20.99
		c0,0,0,8.97-12.78,10.04c0,0-6.84,47-60.08,61.6c0,0,0.1,4.09-3.95,4.72c0,0-13.09,0-13.12,0c-4.67,0-6.1-6.98-4.13-10.29
		c0.62-1.04,2.45-3.06,3.79-3.06c0,0,13.4,0,13.4,0s3.19,0.11,4.05,3.48c0.05,0.21,9.43-3.67,9.93-3.91
		c7.76-3.68,15.03-8.45,21.42-14.19c8.63-7.75,15.55-17.31,19.98-28.05c3.82-9.24,6.53-19.76,6.96-29.81
		c0.66-15.35-3.85-31.07-11.26-44.45c-3.04-5.48-6.91-10.53-11.2-15.09c-11.28-11.97-26.14-20.4-42.06-24.37
		C430.1,161.49,425.33,160.68,420.52,160.21z"/>
	<linearGradient id="SVGID_2_" gradientUnits="userSpaceOnUse" x1="361.6952" y1="246.1449" x2="491.7184" y2="246.1449">
		<stop  offset="0" style="stop-color:#CEB165"/>
		<stop  offset="0.1838" style="stop-color:#EED770"/>
		<stop  offset="0.452" style="stop-color:#D8B75D"/>
		<stop  offset="0.729" style="stop-color:#EACE68"/>
		<stop  offset="1" style="stop-color:#A98335"/>
	</linearGradient>
	<path class="st10" d="M489.97,226.08c-1.85-9.62-5.53-18.86-11.19-26.87c-4.77-6.75-10.84-12.51-17.67-17.14
		c-5.88-4-12.3-7.15-18.98-9.58c-4.92-1.79-10-3.19-15.14-4.16c-0.32-0.06-6.08-0.91-6.15-0.91v7.99l6.61,0.79
		c5.02,5.82,11.75,24.19,11.75,24.19c-6.96,2.62-18.36,3.31-18.36,3.31v8.59c16.88-1.21,20.76-4.11,20.76-4.11l2.13,8.22l7.68-4.23
		l-1.6-6.04c9.28-2.61,16.56-7.75,16.56-7.75c0.5-0.35,4.58,5.88,4.96,6.54c1.15,2.01,2.08,4.13,2.82,6.33
		c1.65,4.92,1.44,9.99,2.39,15.04c0.83,4.46,3.35,7.77,6.02,11.25c1.52,1.98,5.73,5.5,4.3,8.19c-0.81,1.54-2.72,2.44-4.17,3.23
		c-1.06,0.59-2.85,1.35-3.14,2.68c-0.43,1.93,1.84,3.22,1.57,5.12c-0.25,1.66-2.12,1.81-3.08,2.92c-1.02,1.19-0.04,2.31,0.36,3.56
		c0.76,2.34,0.66,5.16-0.99,7.12c-2.36,2.81-6.62,2.62-9.88,1.96c-11.38-2.29-17.53,6.06-17.86,6.52
		c6.69-17.49,4.87-47.59,4.87-47.59l-7.76,5.48c0.31,27.08-6.42,42.74-6.42,42.74c-14.83-5.36-24.81-4.34-24.81-4.34v-15.97
		l-8.96,5.94v10.15c-25.21,1.71-44.88,13.15-44.88,13.15s1.48,1.81,2.2,2.63c0.88,1,3.62,3.88,3.62,3.88
		c10.69-7.94,39.05-12.01,39.05-12.01v40.96l6.96,1.02c-0.34-2.62,1.71-6.84,1.71-6.84l-0.46-34.22c11.3-1.61,22.82,3.19,22.82,3.19
		c-5.93,16.2-16.77,26.7-16.77,26.7c2.54-0.09,5.08-0.18,7.63-0.27c3.51-0.11,7.53-0.81,10.9,0.33c0.46,0.15,2.09,1.02,2.55,0.85
		c1.78-0.66,3.55-1.37,5.28-2.12c14.63-6.4,27.5-16.96,35.37-30.99c0.59-1.06,1.17-2.13,1.7-3.22
		C492.15,262.28,493.29,243.4,489.97,226.08z M447.53,198.18l-8.28-18.2c7.93,1.65,20.99,12.38,20.99,12.38L447.53,198.18z
		 M436.34,307.9c0,0,8.06-13.09,9.13-18.26l12.55,6.62C458.02,296.27,448.13,304.41,436.34,307.9z M464.94,290.41
		c-3.3-1.62-6.6-3.22-9.89-4.83c1.27-1.76,2.62-4.8,4.71-5.66c1.71-0.7,3.87-0.47,5.65-0.25c2.39,0.3,4.73,0.95,7.13,1.07
		C470.01,283.97,467.48,287.19,464.94,290.41z"/>
</g>
<g>
	<polygon class="st1" points="360.99,428.43 366.01,443.88 382.26,443.88 369.11,453.43 374.13,468.88 360.99,459.33 347.84,468.88 
		352.87,453.43 339.72,443.88 355.97,443.88 	"/>
	<polygon class="st5" points="415.86,428.43 420.88,443.88 437.13,443.88 423.99,453.43 429.01,468.88 415.86,459.33 402.72,468.88 
		407.74,453.43 394.6,443.88 410.84,443.88 	"/>
	<linearGradient id="SVGID_3_" gradientUnits="userSpaceOnUse" x1="452.4686" y1="447.4394" x2="495.002" y2="447.4394">
		<stop  offset="0" style="stop-color:#CEB165"/>
		<stop  offset="0.1838" style="stop-color:#EED770"/>
		<stop  offset="0.452" style="stop-color:#D8B75D"/>
		<stop  offset="0.729" style="stop-color:#EACE68"/>
		<stop  offset="1" style="stop-color:#A98335"/>
	</linearGradient>
	<polygon class="st11" points="473.74,427.21 478.76,442.66 495,442.66 481.86,452.21 486.88,467.67 473.74,458.12 460.59,467.67 
		465.61,452.21 452.47,442.66 468.71,442.66 	"/>
</g>
</svg>
